<?xml version="1.0" encoding="UTF-8" standalone="no"?>
<svg xmlns="http://www.w3.org/2000/svg" class="card" face="1B" height="3.5in" preserveAspectRatio="none" viewBox="-106 -164.5 212 329" width="2.25in"><rect width="211" height="328" x="-105.5" y="-164" rx="12" ry="12" fill="white" stroke="black"></rect><rect width="179.538" height="301.978" x="-89.769" y="-150.989" fill="black"></rect><path d="M0,0h1v-1h1h1v1v1v1h-1v1v1v1h1v-1v-1h1h1h1v1v1h-1h-1v1h1h1v1v1v1h1v1h-1v1h-1h-1h-1v-1h1h1v-1v-1v-1h-1h-1v1v1h1v-1M3,9h-1h-1h-1h-1h-1v1h1v1v1h-1v1h1h1v-1h1v-1h-1v-1h1h1v1v1v1v1v1v1h1v-1v-1v-1h1v-1h1v1h1v1h1v-1v-1h-1M7,12v-1h1v1h1h1v1v1v1v1h1v-1h1v-1v-1v-1h1h1v-1v-1h-1h-1v1h1M12,11h-1v-1h-1v-1h1v-1h1h1v1h-1M13,9h1v-1v-1h-1v-1v-1h-1v-1v-1h-1v1h-1h-1h-1h-1v1h1v1h-1v1h1v1h1h1v-1h-1v-1v-1h1h1v1v1h1v-1M11,6h-1M9,8v1h-1v1h1v1h1M8,8h-1M7,4v-1h1v-1h1v-1h-1h-1h-1h-1h-1v-1v-1v-1v-1h1v-1v-1h-1v-1h1h1h1v1h1v-1v-1h-1v-1v-1v-1h1v1h1v1h-1M9,-8h1h1v-1h-1v-1h1v-1h-1h-1h-1v-1h-1h-1v-1h1v-1h1v-1h1v1v1v1h1v-1h1v1h1v1v1v1v1h1v1h-1v1h-1v1h1v1h1v1v1v1v1h-1v-1v-1v-1h-1v-1h-1v1h-1h-1h-1v-1h1h1v-1v-1v-1h1h1M10,-7v1v1M7,-4h-1v1v1v1h-1v1h1h1h1h1h1h1v-1v-1h-1h-1v1h-1h-1v-1h1M9,-1h1M11,0v1h1v1h1v-1h1v1v1v1h-1v-1M14,4v1v1M14,1v-1v-1v-1v-1v-1v-1v-1h-1v1M14,-6v-1v-1v-1v-1v-1v-1v-1v-1h-1v-1v-1v-1h-1v-1h-1v-1v-1h-1v1h-1v1h-1v-1v-1h-1h-1v-1h1h1h1v-1v-1h1v-1h1h1v1h-1v1v1h1v-1h1v-1v-1h1v1v1v1h-1v1h-1v1h1v1h1v1v1v1M14,-18v-1v-1M11,-21h-1v-1M10,-24h-1h-1v1h-1v-1h-1h-1v1h1v1h-1v1v1v1v1v1h-1v-1v-1h-1v1h-1v1v1v1h1h1v-1h1v1h1v1h-1h-1h-1v1v1h1v-1h1v1v1h-1v1h1v1v1h1v-1v-1v-1h1M6,-8v1h-1h-1v-1h-1v1v1h-1v1v1h1v-1M3,-4h1M2,-4v1h-1v1h-1v1h-1h-1v1M-1,-1v-1v-1v-1h1h1v-1v-1h-1v-1v-1h1h1v1h-1M0,-8h-1h-1v1h1v1v1h1M-1,-6h-1h-1M0,-4v1M1,-2h1h1v-1M3,-8v-1h1M3,-9v-1v-1h-1M3,-14h-1h-1v-1h-1v1h-1v1M-1,-14v-1v-1v-1v-1v-1h-1h-1v1v1h1v-1M-3,-17h-1v-1h-1v1h-1v1v1h1h1v-1h-1M-4,-15v1h-1M-6,-15h-1v-1h-1v-1h1v-1h-1v-1v-1v-1v-1h1v-1h-1h-1h-1h-1v-1h1h1h1h1h1h1v1h1h1h1v-1h1h1v1v1h1v-1h1v-1h-1M2,-24h1h1v1v1v1v1h-1v-1v-1v-1M3,-22h-1v1h-1v1v1h-1v1v1v1h1v-1v-1M0,-19v-1v-1h-1v1h-1h-1h-1h-1h-1v1h1h1M-6,-19v1M-6,-20h-1v-1h1v-1v-1M-6,-22h1h1v1h1h1v-1h1v-1M-2,-22h-1M-4,-21h-1M-7,-20v1M1,-19h1v-1M-2,-24h-1h-1M-11,-24h-1v1v1v1h-1v-1v-1v-1h-1v1v1v1v1v1h1h1v1v1h1v-1h1v1h1v-1v-1h-1h-1v-1h1h1v-1v-1h-1v1h-1v-1M-11,-20h-1h-1M-9,-17v1v1v1v1h1v-1v-1M-12,-17v1h-1v1h-1v-1v-1h1v-1h-1M-14,-15v1v1h1v-1M6,-15v-1h1h1v-1h1h1v1v1v1h1h1v1h1v1v1v1v1M12,-14v-1v-1h-1v-1M11,-16v1M10,-16h-1M10,-17v-1M8,-17h-1v-1h-1v-1h1M6,-18v1M7,-16v1M4,-16h-1v-1M6,-22h1h1M9,-21v1M12,2h-1h-1v1h-1M10,2v-1M5,-1v-1M6,-4v-1M9,-13h-1M9,-11v1M4,1v1h1h1h1M11,11v1v1v1M4,12h-1M4,5v-1h1" transform="scale(6.122)" fill="none" stroke="white" stroke-width="0.674" stroke-linecap="square" stroke-linejoin="miter"></path><path d="M0,0h1v-1h1h1v1v1v1h-1v1v1v1h1v-1v-1h1h1h1v1v1h-1h-1v1h1h1v1v1v1h1v1h-1v1h-1h-1h-1v-1h1h1v-1v-1v-1h-1h-1v1v1h1v-1M3,9h-1h-1h-1h-1h-1v1h1v1v1h-1v1h1h1v-1h1v-1h-1v-1h1h1v1v1v1v1v1v1h1v-1v-1v-1h1v-1h1v1h1v1h1v-1v-1h-1M7,12v-1h1v1h1h1v1v1v1v1h1v-1h1v-1v-1v-1h1h1v-1v-1h-1h-1v1h1M12,11h-1v-1h-1v-1h1v-1h1h1v1h-1M13,9h1v-1v-1h-1v-1v-1h-1v-1v-1h-1v1h-1h-1h-1h-1v1h1v1h-1v1h1v1h1h1v-1h-1v-1v-1h1h1v1v1h1v-1M11,6h-1M9,8v1h-1v1h1v1h1M8,8h-1M7,4v-1h1v-1h1v-1h-1h-1h-1h-1h-1v-1v-1v-1v-1h1v-1v-1h-1v-1h1h1h1v1h1v-1v-1h-1v-1v-1v-1h1v1h1v1h-1M9,-8h1h1v-1h-1v-1h1v-1h-1h-1h-1v-1h-1h-1v-1h1v-1h1v-1h1v1v1v1h1v-1h1v1h1v1v1v1v1h1v1h-1v1h-1v1h1v1h1v1v1v1v1h-1v-1v-1v-1h-1v-1h-1v1h-1h-1h-1v-1h1h1v-1v-1v-1h1h1M10,-7v1v1M7,-4h-1v1v1v1h-1v1h1h1h1h1h1h1v-1v-1h-1h-1v1h-1h-1v-1h1M9,-1h1M11,0v1h1v1h1v-1h1v1v1v1h-1v-1M14,4v1v1M14,1v-1v-1v-1v-1v-1v-1v-1h-1v1M14,-6v-1v-1v-1v-1v-1v-1v-1v-1h-1v-1v-1v-1h-1v-1h-1v-1v-1h-1v1h-1v1h-1v-1v-1h-1h-1v-1h1h1h1v-1v-1h1v-1h1h1v1h-1v1v1h1v-1h1v-1v-1h1v1v1v1h-1v1h-1v1h1v1h1v1v1v1M14,-18v-1v-1M11,-21h-1v-1M10,-24h-1h-1v1h-1v-1h-1h-1v1h1v1h-1v1v1v1v1v1h-1v-1v-1h-1v1h-1v1v1v1h1h1v-1h1v1h1v1h-1h-1h-1v1v1h1v-1h1v1v1h-1v1h1v1v1h1v-1v-1v-1h1M6,-8v1h-1h-1v-1h-1v1v1h-1v1v1h1v-1M3,-4h1M2,-4v1h-1v1h-1v1h-1h-1v1M-1,-1v-1v-1v-1h1h1v-1v-1h-1v-1v-1h1h1v1h-1M0,-8h-1h-1v1h1v1v1h1M-1,-6h-1h-1M0,-4v1M1,-2h1h1v-1M3,-8v-1h1M3,-9v-1v-1h-1M3,-14h-1h-1v-1h-1v1h-1v1M-1,-14v-1v-1v-1v-1v-1h-1h-1v1v1h1v-1M-3,-17h-1v-1h-1v1h-1v1v1h1h1v-1h-1M-4,-15v1h-1M-6,-15h-1v-1h-1v-1h1v-1h-1v-1v-1v-1v-1h1v-1h-1h-1h-1h-1v-1h1h1h1h1h1h1v1h1h1h1v-1h1h1v1v1h1v-1h1v-1h-1M2,-24h1h1v1v1v1v1h-1v-1v-1v-1M3,-22h-1v1h-1v1v1h-1v1v1v1h1v-1v-1M0,-19v-1v-1h-1v1h-1h-1h-1h-1h-1v1h1h1M-6,-19v1M-6,-20h-1v-1h1v-1v-1M-6,-22h1h1v1h1h1v-1h1v-1M-2,-22h-1M-4,-21h-1M-7,-20v1M1,-19h1v-1M-2,-24h-1h-1M-11,-24h-1v1v1v1h-1v-1v-1v-1h-1v1v1v1v1v1h1h1v1v1h1v-1h1v1h1v-1v-1h-1h-1v-1h1h1v-1v-1h-1v1h-1v-1M-11,-20h-1h-1M-9,-17v1v1v1v1h1v-1v-1M-12,-17v1h-1v1h-1v-1v-1h1v-1h-1M-14,-15v1v1h1v-1M6,-15v-1h1h1v-1h1h1v1v1v1h1h1v1h1v1v1v1v1M12,-14v-1v-1h-1v-1M11,-16v1M10,-16h-1M10,-17v-1M8,-17h-1v-1h-1v-1h1M6,-18v1M7,-16v1M4,-16h-1v-1M6,-22h1h1M9,-21v1M12,2h-1h-1v1h-1M10,2v-1M5,-1v-1M6,-4v-1M9,-13h-1M9,-11v1M4,1v1h1h1h1M11,11v1v1v1M4,12h-1M4,5v-1h1" transform="scale(6.122)rotate(180)" fill="none" stroke="white" stroke-width="0.674" stroke-linecap="square" stroke-linejoin="miter"></path></svg>